<svg width="15" height="13" viewBox="0 0 15 13" fill="none" xmlns="http://www.w3.org/2000/svg">
<path d="M7.5 11.2083C7.91421 11.2083 8.25 10.8726 8.25 10.4583C8.25 10.0441 7.91421 9.70835 7.5 9.70835V11.2083ZM1.16666 9.70834C0.752451 9.70834 0.416664 10.0441 0.416664 10.4583C0.416664 10.8726 0.75245 11.2083 1.16666 11.2083L1.16666 9.70834ZM7.5 1.79168C7.08578 1.79168 6.75 2.12746 6.75 2.54168C6.75 2.95589 7.08578 3.29168 7.5 3.29168V1.79168ZM13.8333 3.29168C14.2475 3.29168 14.5833 2.95589 14.5833 2.54168C14.5833 2.12746 14.2475 1.79168 13.8333 1.79168V3.29168ZM7.5 9.70835L1.16666 9.70834L1.16666 11.2083L7.5 11.2083V9.70835ZM7.5 3.29168L13.8333 3.29168V1.79168L7.5 1.79168V3.29168ZM0.416664 2.54168C0.416664 3.83034 1.46133 4.87501 2.75 4.87501V3.37501C2.28976 3.37501 1.91666 3.00191 1.91666 2.54168H0.416664ZM2.75 4.87501C4.03866 4.87501 5.08333 3.83034 5.08333 2.54168H3.58333C3.58333 3.00191 3.21023 3.37501 2.75 3.37501V4.87501ZM5.08333 2.54168C5.08333 1.25301 4.03866 0.208344 2.75 0.208344V1.70834C3.21023 1.70834 3.58333 2.08144 3.58333 2.54168H5.08333ZM2.75 0.208344C1.46133 0.208344 0.416664 1.25301 0.416664 2.54168H1.91666C1.91666 2.08144 2.28976 1.70834 2.75 1.70834V0.208344ZM14.5833 10.4583C14.5833 9.16968 13.5387 8.12501 12.25 8.12501V9.62501C12.7102 9.62501 13.0833 9.99811 13.0833 10.4583H14.5833ZM12.25 8.12501C10.9613 8.12501 9.91666 9.16968 9.91666 10.4583H11.4167C11.4167 9.99811 11.7898 9.62501 12.25 9.62501V8.12501ZM9.91666 10.4583C9.91666 11.747 10.9613 12.7917 12.25 12.7917V11.2917C11.7898 11.2917 11.4167 10.9186 11.4167 10.4583H9.91666ZM12.25 12.7917C13.5387 12.7917 14.5833 11.747 14.5833 10.4583H13.0833C13.0833 10.9186 12.7102 11.2917 12.25 11.2917V12.7917Z" fill="#ACACAC"/>
</svg>
