<svg width="19" height="19" viewBox="0 0 19 19" fill="none" xmlns="http://www.w3.org/2000/svg">
<path d="M15.5721 13.7197C15.2792 13.4268 14.8043 13.4268 14.5114 13.7197C14.2185 14.0126 14.2185 14.4875 14.5114 14.7804L15.5721 13.7197ZM17.678 17.947C17.9709 18.2399 18.4457 18.2399 18.7386 17.947C19.0315 17.6541 19.0315 17.1793 18.7386 16.8864L17.678 17.947ZM14.5114 14.7804L17.678 17.947L18.7386 16.8864L15.5721 13.7197L14.5114 14.7804ZM8.70834 14.2917C5.18753 14.2917 2.33334 11.4375 2.33334 7.91666H0.833344C0.833344 12.2659 4.3591 15.7917 8.70834 15.7917V14.2917ZM15.0833 7.91666C15.0833 11.4375 12.2292 14.2917 8.70834 14.2917V15.7917C13.0576 15.7917 16.5833 12.2659 16.5833 7.91666H15.0833ZM8.70834 1.54166C12.2292 1.54166 15.0833 4.39584 15.0833 7.91666H16.5833C16.5833 3.56741 13.0576 0.0416565 8.70834 0.0416565V1.54166ZM8.70834 0.0416565C4.3591 0.0416565 0.833344 3.56741 0.833344 7.91666H2.33334C2.33334 4.39584 5.18753 1.54166 8.70834 1.54166V0.0416565Z" fill="#ACACAC"/>
</svg>
